:SAMPLES-PER-SECOND 30
:FRAME-RANGE 1-663
:FULLY-SPECIFIED
:DEGREES
394
root  -18.9149 40.1012 -3.81919 -176.569 85.2251 176.617
RightUpLeg  -12.4581 4.66262 -0.846597
RightLeg  11.3496 14.11 0.828267
RightFoot  -5.19657 -0.0202247 -0.280283
RightToes  -3.4386e-010 1.2921e-014 -6.02303e-014
Spine  -4.26768 -6.60322 -4.4466
Spine1  6.76349 -8.21453 6.13715
HEad  13.8137 7.57111 -2.53506
LeftShoulder1  2.36885 -9.41021 -11.7314
LeftArm  12.482 -26.2542 -39.2112
LeftForeArm  -31.3868 -30.0995 -8.02479
LeftHand  0.247939 1.85738 -8.63493
RightShoulder  1.3723 1.92413 19.8255
RightArm  2.70499 26.4221 49.6642
RightForeArm  -2.96469 47.1363 12.3018
RightHand  -0.0257961 -11.9566 -0.677807
LeftUpLeg  -10.1499 -0.252936 -4.90684
LeftLeg  6.2633 17.3563 2.95359
LeftFoot  -2.43307 -0.1715 2.39022
LeftToes  -7.12384e-010 -7.51861e-011 -8.34901e-011
395
root  -18.8255 40.0669 -3.93776 -179.146 84.833 174.726
RightUpLeg  -11.7206 3.04606 -1.34605
RightLeg  11.8428 15.3292 1.65712
RightFoot  -5.82843 -0.0139046 -0.532286
RightToes  -3.4386e-010 1.2921e-014 -6.02303e-014
Spine  -4.70069 -6.37951 -2.63127
Spine1  6.88967 -7.58452 4.14346
HEad  14.4393 8.4671 -3.34492
LeftShoulder1  2.337 -8.76282 -12.5473
LeftArm  11.0739 -23.9289 -39.8099
LeftForeArm  -29.0677 -32.1108 -8.48203
LeftHand  0.254493 1.70749 -8.45685
RightShoulder  1.3443 1.84367 19.6772
RightArm  2.49048 23.4654 49.8906
RightForeArm  -2.42736 48.8784 13.0564
RightHand  0.0917556 -11.6288 -2.78046
LeftUpLeg  -9.58468 -0.817733 -5.44282
LeftLeg  7.02141 17.5326 3.56964
LeftFoot  -2.98845 -0.11252 1.78799
LeftToes  -7.12384e-010 -7.51861e-011 -8.34901e-011
396
root  -18.7721 40.0177 -4.16062 177.983 84.3629 172.401
RightUpLeg  -11.333 0.769342 -2.18957
RightLeg  12.8216 17.0294 2.90616
RightFoot  -6.5971 -0.00859908 -0.871801
RightToes  -3.4386e-010 1.2921e-014 -6.02303e-014
Spine  -4.90405 -6.04298 0.229355
Spine1  6.48335 -6.68067 1.35272
HEad  15.4447 9.61305 -3.999
LeftShoulder1  2.34653 -8.26142 -13.5659
LeftArm  9.75092 -21.8292 -40.1509
LeftForeArm  -26.6769 -34.1863 -8.97722
LeftHand  0.204137 1.76145 -6.96161
RightShoulder  1.2431 1.43985 19.7531
RightArm  2.30046 20.6516 49.7525
RightForeArm  -1.39136 50.5324 13.7921
RightHand  0.09988 -11.6974 -2.90083
LeftUpLeg  -9.26884 -1.87761 -6.27817
LeftLeg  7.96082 18.3041 4.33746
LeftFoot  -3.47866 -0.102144 1.79179
LeftToes  -7.12384e-010 -7.51861e-011 -8.34901e-011
397
root  -18.748 39.9324 -4.37035 178.001 83.0263 172.847
RightUpLeg  -11.073 -2.05086 -2.92965
RightLeg  13.9824 18.4806 4.23441
RightFoot  -7.48455 -0.0125013 -1.13447
RightToes  -3.4386e-010 1.2921e-014 -6.02303e-014
Spine  -5.47598 -6.02077 3.1064
Spine1  6.74461 -6.1637 -1.32512
HEad  15.7891 10.8498 -4.70926
LeftShoulder1  2.26173 -7.81274 -13.6282
LeftArm  7.48255 -19.7831 -41.1137
LeftForeArm  -23.301 -36.0929 -9.40287
LeftHand  0.210121 1.78413 -7.20637
RightShoulder  1.20228 1.27478 19.8011
RightArm  1.86959 17.7777 49.3525
RightForeArm  -0.100953 52.5215 14.7562
RightHand  0.108817 -11.2997 -3.22059
LeftUpLeg  -9.8163 -3.62896 -6.76887
LeftLeg  10.3754 18.5503 5.31818
LeftFoot  -4.43526 -0.0155894 0.701357
LeftToes  -7.12384e-010 -7.51861e-011 -8.34901e-011
398
root  -18.7433 39.8282 -4.56889 178.994 80.9359 174.199
RightUpLeg  -10.8153 -4.94755 -3.60777
RightLeg  15.2403 19.2647 5.43765
RightFoot  -8.42497 -0.0254706 -1.24044
RightToes  -3.4386e-010 1.2921e-014 -6.02303e-014
Spine  -5.92054 -6.13144 5.40894
Spine1  6.83232 -5.97096 -3.14346
HEad  15.9258 11.912 -5.45719
LeftShoulder1  2.24784 -7.51959 -14.0938
LeftArm  5.76722 -18.0242 -41.856
LeftForeArm  -20.4077 -37.8425 -9.81966
LeftHand  0.206713 1.76743 -7.10703
RightShoulder  1.11304 0.948946 19.6863
RightArm  1.58802 15.0189 48.8297
RightForeArm  1.27452 54.3533 15.7226
RightHand  0.0884699 -10.883 -3.00279
LeftUpLeg  -10.9298 -6.12899 -6.91204
LeftLeg  13.7807 18.7109 6.14912
LeftFoot  -5.28026 0.0313783 0.00770094
LeftToes  -7.12384e-010 -7.51861e-011 -8.34901e-011
399
root  -18.7554 39.7363 -4.77525 179.334 78.492 174.876
RightUpLeg  -10.4095 -8.04746 -4.44637
RightLeg  16.318 20.0022 6.59145
RightFoot  -9.26234 -0.0393683 -1.28587
RightToes  -3.4386e-010 1.2921e-014 -6.02303e-014
Spine  -6.33205 -6.32295 7.76161
Spine1  6.86318 -5.78545 -5.29379
HEad  15.9176 12.6101 -5.86996
LeftShoulder1  2.1876 -7.24497 -14.0604
LeftArm  4.74351 -16.3521 -42.6602
LeftForeArm  -18.0268 -39.3286 -10.1927
LeftHand  0.200596 1.79702 -6.92276
RightShoulder  1.05067 0.655116 20.0618
RightArm  1.23719 12.6638 48.3863
RightForeArm  2.57992 55.7363 16.498
RightHand  0.10193 -10.6979 -3.36646
LeftUpLeg  -12.272 -7.69056 -7.03935
LeftLeg  17.3933 17.7461 6.48914
LeftFoot  -6.20856 0.108531 -1.58902
LeftToes  -7.12384e-010 -7.51861e-011 -8.34901e-011
400
root  -18.7703 39.6647 -4.99232 179.563 75.7088 175.198
RightUpLeg  -10.0314 -10.8846 -5.3219
RightLeg  17.0992 20.0086 7.39124
RightFoot  -9.9588 -0.0526348 -1.22422
RightToes  -3.4386e-010 1.2921e-014 -6.02303e-014
Spine  -7.16533 -6.5523 9.58243
Spine1  7.309 -5.7737 -6.87833
HEad  16.1259 13.9474 -6.35527
LeftShoulder1  2.11543 -6.92251 -14.0034
LeftArm  3.41686 -14.3792 -43.5769
LeftForeArm  -15.6027 -41.0955 -10.6791
LeftHand  0.199327 1.82395 -6.93952
RightShoulder  0.989936 0.403469 20.2175
RightArm  0.408103 10.6188 48.2398
RightForeArm  4.83019 57.1001 17.2395
RightHand  0.0712633 -10.458 -2.82179
LeftUpLeg  -13.7669 -7.29743 -7.2538
LeftLeg  20.764 14.8501 6.447
LeftFoot  -8.11465 0.207353 -5.63309
LeftToes  -7.12384e-010 -7.51861e-011 -8.34901e-011
401
root  -18.7573 39.5852 -5.25387 -179.928 72.6125 175.724
RightUpLeg  -9.4307 -13.895 -6.3691
RightLeg  17.7503 19.9231 8.37149
RightFoot  -10.725 -0.0667239 -1.08965
RightToes  -3.4386e-010 1.2921e-014 -6.02303e-014
Spine  -8.27855 -6.97299 11.3733
Spine1  7.89029 -6.02202 -8.26474
HEad  15.9402 15.2174 -7.10053
LeftShoulder1  2.02537 -6.33957 -14.3512
LeftArm  2.32335 -12.1977 -43.7603
LeftForeArm  -13.3853 -43.054 -11.2788
LeftHand  0.168394 2.06309 -6.4017
RightShoulder  0.97272 0.325056 20.3213
RightArm  0.587281 9.42215 48.2097
RightForeArm  6.26866 57.7364 17.5703
RightHand  0.0342936 -10.3903 -2.02948
LeftUpLeg  -14.878 -7.58357 -7.51114
LeftLeg  23.182 14.7444 7.13286
LeftFoot  -10.0134 0.144832 -7.31901
LeftToes  -7.12384e-010 -7.51861e-011 -8.34901e-011
402
root  -18.7315 39.5558 -5.54574 179.943 69.1962 175.343
RightUpLeg  -8.57912 -16.6543 -7.85717
RightLeg  17.723 19.3133 9.16984
RightFoot  -11.21 -0.0747475 -0.972995
RightToes  -3.4386e-010 1.2921e-014 -6.02303e-014
Spine  -9.91256 -7.4829 12.6629
Spine1  8.79083 -6.39909 -9.57248
HEad  15.8922 17.0398 -7.8428
LeftShoulder1  1.92256 -5.58878 -15.0275
LeftArm  2.06145 -10.3998 -43.2474
LeftForeArm  -11.8291 -44.5753 -11.7846
LeftHand  0.156962 2.35055 -6.64439
RightShoulder  0.997478 0.40764 20.405
RightArm  1.18741 8.75953 48.2328
RightForeArm  7.30017 57.6809 17.4308
RightHand  0.0336856 -9.9896 -2.13492
LeftUpLeg  -15.991 -8.04079 -7.69646
LeftLeg  25.0525 16.3721 8.49681
LeftFoot  -11.1381 0.0793316 -7.13731
LeftToes  -7.12384e-010 -7.51861e-011 -8.34901e-011
403
root  -18.7126 39.5321 -5.84408 179.936 65.123 174.964
RightUpLeg  -7.31021 -19.2058 -9.7097
RightLeg  17.2516 17.9885 10.044
RightFoot  -11.6629 -0.0805069 -0.559071
RightToes  -3.4386e-010 1.2921e-014 -6.02303e-014
Spine  -11.8063 -8.27578 13.5158
Spine1  9.9449 -7.08813 -10.7331
HEad  15.4626 18.9733 -8.38231
LeftShoulder1  1.78981 -4.89357 -15.2606
LeftArm  1.05938 -8.22606 -43.2762
LeftForeArm  -10.0276 -45.526 -12.0649
LeftHand  0.166524 2.30833 -6.90913
RightShoulder  1.0933 0.763476 20.4385
RightArm  2.32154 7.93753 48.2225
RightForeArm  7.7459 57.8652 17.525
RightHand  0.0446477 -9.67825 -2.52557
LeftUpLeg  -17.1206 -10.6157 -7.45641
LeftLeg  26.6428 19.9617 10.8573
LeftFoot  -11.1121 0.0807313 -7.10361
LeftToes  -7.12384e-010 -7.51861e-011 -8.34901e-011
404
root  -18.6853 39.5109 -6.1651 179.772 60.4645 174.265
RightUpLeg  -5.75853 -20.5667 -11.8999
RightLeg  16.4693 14.9391 10.6344
RightFoot  -12.224 -0.0835929 -0.110223
RightToes  -3.4386e-010 1.2921e-014 -6.02303e-014
Spine  -14.1327 -9.12925 13.7275
Spine1  11.6683 -7.85458 -11.4976
HEad  14.7693 20.5896 -8.95673
LeftShoulder1  1.71051 -4.48767 -15.3904
LeftArm  -0.408798 -5.9713 -43.5818
LeftForeArm  -8.42235 -46.3905 -12.33
LeftHand  0.159645 2.10511 -6.1794
RightShoulder  1.1093 0.793521 20.6494
RightArm  2.98273 7.53153 48.7558
RightForeArm  8.45262 57.3472 17.0775
RightHand  0.0410164 -9.20727 -2.64931
LeftUpLeg  -18.3775 -12.9403 -6.93238
LeftLeg  27.4716 22.0333 12.2567
LeftFoot  -10.5083 0.107439 -6.11982
LeftToes  -7.12384e-010 -7.51861e-011 -8.34901e-011
